<svg aria-hidden="true" style="position: absolute; width: 0; height: 0; overflow: hidden;" version="1.1" xmlns="http://www.w3.org/2000/svg" xmlns:xlink="http://www.w3.org/1999/xlink">
<defs>
<symbol id="icon-Arrow-Cursor-1--Streamline-Plump-1" viewBox="0 0 22 32">
<path fill="#b8ef5b" style="fill: var(--color1, #b8ef5b)" d="M15.932 5.082l0 0c3.048 2.806 3.243 7.552 0.437 10.6l-0 0c-2.806 3.048-7.552 3.243-10.6 0.437l-0-0c-3.048-2.806-3.243-7.552-0.437-10.6l0-0c2.806-3.048 7.552-3.243 10.6-0.437z"></path>
</symbol>
<symbol id="icon-Chevron-Down" viewBox="0 0 32 32">
<path d="M11.566 12.903l4.434 4.434 4.434-4.434c0.446-0.446 1.166-0.446 1.611 0s0.446 1.166 0 1.611l-5.246 5.246c-0.446 0.446-1.166 0.446-1.611 0l-5.246-5.246c-0.446-0.446-0.446-1.166 0-1.611 0.446-0.434 1.177-0.446 1.623 0z"></path>
</symbol>
<symbol id="icon-Chevron-Right--Streamline-Heroicons-Outline-1" viewBox="0 0 32 32">
<path stroke-linejoin="round" stroke-linecap="round" stroke-miterlimit="4" stroke-width="2" d="M22.459 28.918l-12.918-12.918 12.918-12.918"></path>
</symbol>
<symbol id="icon-Chevron-Right--Streamline-Heroicons-Outline-2" viewBox="0 0 32 32">
<path stroke-linejoin="round" stroke-linecap="round" stroke-miterlimit="4" stroke-width="2" d="M28.918 9.541l-12.918 12.918-12.918-12.918"></path>
</symbol>
<symbol id="icon-Chevron-Right--Streamline-Heroicons-Outline-3" viewBox="0 0 32 32">
<path stroke-linejoin="round" stroke-linecap="round" stroke-miterlimit="4" stroke-width="2" d="M3.082 22.459l12.918-12.918 12.918 12.918"></path>
</symbol>
<symbol id="icon-Chevron-Right--Streamline-Heroicons-Outline" viewBox="0 0 32 32">
<path stroke-linejoin="round" stroke-linecap="round" stroke-miterlimit="4" stroke-width="2" d="M9.541 3.082l12.918 12.918-12.918 12.918"></path>
</symbol>
<symbol id="icon-credit-card" viewBox="0 0 32 32">
<path stroke-linejoin="round" stroke-linecap="round" stroke-miterlimit="4" stroke-width="2" d="M1.333 13.333h29.333M4 5.333h24c1.473 0 2.667 1.194 2.667 2.667v16c0 1.473-1.194 2.667-2.667 2.667h-24c-1.473 0-2.667-1.194-2.667-2.667v-16c0-1.473 1.194-2.667 2.667-2.667z"></path>
</symbol>
<symbol id="icon-eye-off" viewBox="0 0 32 32">
<path stroke-linejoin="round" stroke-linecap="round" stroke-miterlimit="4" stroke-width="2.6667" d="M23.92 23.92c-2.279 1.737-5.055 2.7-7.92 2.747-9.333 0-14.667-10.667-14.667-10.667 1.659-3.091 3.959-5.791 6.747-7.92M13.2 5.653c0.918-0.215 1.857-0.322 2.8-0.32 9.333 0 14.667 10.667 14.667 10.667-0.809 1.514-1.775 2.94-2.88 4.253M18.827 18.827c-0.366 0.393-0.808 0.708-1.298 0.927s-1.020 0.336-1.557 0.346-1.071-0.089-1.569-0.291c-0.498-0.201-0.951-0.501-1.33-0.88s-0.679-0.832-0.88-1.33c-0.201-0.498-0.3-1.032-0.29-1.569s0.127-1.067 0.346-1.557c0.219-0.491 0.534-0.932 0.927-1.299"></path>
<path stroke-linejoin="round" stroke-linecap="round" stroke-miterlimit="4" stroke-width="2.6667" d="M1.333 1.333l29.333 29.333"></path>
</symbol>
<symbol id="icon-eye" viewBox="0 0 32 32">
<path stroke-linejoin="round" stroke-linecap="round" stroke-miterlimit="4" stroke-width="2.6667" d="M1.333 16c0 0 5.333-10.667 14.667-10.667s14.667 10.667 14.667 10.667c0 0-5.333 10.667-14.667 10.667s-14.667-10.667-14.667-10.667z"></path>
<path stroke-linejoin="round" stroke-linecap="round" stroke-miterlimit="4" stroke-width="2.6667" d="M16 20c2.209 0 4-1.791 4-4s-1.791-4-4-4c-2.209 0-4 1.791-4 4s1.791 4 4 4z"></path>
</symbol>
<symbol id="icon-Hearts-Symbol--Streamline-Plump-1" viewBox="0 0 32 32">
<path stroke-linejoin="round" stroke-linecap="butt" stroke-miterlimit="4" stroke-width="2" d="M28.842 17.724c1.473-2.263 1.867-5.157 1.254-7.81-1.309-6.044-8.559-8.513-13.074-4.463-0.358 0.319-0.676 0.686-1.027 1.052-0.352-0.366-0.67-0.734-1.028-1.052-4.516-4.050-11.765-1.58-13.074 4.463-0.613 2.653-0.154 5.507 1.254 7.81 2.583 3.968 7.191 6.918 10.921 10.107 1.097 0.938 2.755 0.938 3.852 0 3.731-3.19 8.339-6.139 10.921-10.107z"></path>
</symbol>
<symbol id="icon-ic_outline-apple" viewBox="0 0 32 32">
<path fill="#fffefd" style="fill: var(--color2, #fffefd)" d="M22.733 27.040c-1.307 1.267-2.733 1.067-4.107 0.467-1.453-0.613-2.787-0.64-4.32 0-1.92 0.827-2.933 0.587-4.080-0.467-6.507-6.707-5.547-16.92 1.84-17.293 1.8 0.093 3.053 0.987 4.107 1.067 1.573-0.32 3.080-1.24 4.76-1.12 2.013 0.16 3.533 0.96 4.533 2.4-4.16 2.493-3.173 7.973 0.64 9.507-0.76 2-1.747 3.987-3.387 5.453l0.013-0.013zM16.040 9.667c-0.2-2.973 2.213-5.427 4.987-5.667 0.387 3.44-3.12 6-4.987 5.667z"></path>
</symbol>
<symbol id="icon-icon-park-outline_handle-c" viewBox="0 0 32 32">
<path fill="none" stroke="#b8ef5b" style="stroke: var(--color1, #b8ef5b)" stroke-linejoin="round" stroke-linecap="round" stroke-miterlimit="4" stroke-width="2.6667" d="M16 29.333c7.364 0 13.333-5.969 13.333-13.333s-5.97-13.333-13.333-13.333c-7.364 0-13.333 5.97-13.333 13.333s5.97 13.333 13.333 13.333z"></path>
<path fill="none" stroke="#b8ef5b" style="stroke: var(--color1, #b8ef5b)" stroke-linejoin="round" stroke-linecap="round" stroke-miterlimit="4" stroke-width="2.6667" d="M21.333 11.745c-0.599-1.22-2.395-3.354-5.989-3.049s-6.289 3.66-5.989 7.929c0.3 4.269 3.593 6.709 6.587 6.709 3.593 0 5.39-2.927 5.39-2.927"></path>
</symbol>
<symbol id="icon-instagram" viewBox="0 0 32 32">
<path stroke-linejoin="round" stroke-linecap="round" stroke-miterlimit="4" stroke-width="2.6667" d="M22.667 2.667h-13.333c-3.682 0-6.667 2.985-6.667 6.667v13.333c0 3.682 2.985 6.667 6.667 6.667h13.333c3.682 0 6.667-2.985 6.667-6.667v-13.333c0-3.682-2.985-6.667-6.667-6.667z"></path>
<path stroke-linejoin="round" stroke-linecap="round" stroke-miterlimit="4" stroke-width="2.6667" d="M21.334 15.16c0.165 1.11-0.025 2.243-0.542 3.239s-1.334 1.803-2.336 2.307c-1.002 0.504-2.138 0.68-3.245 0.502s-2.131-0.701-2.924-1.494-1.316-1.816-1.494-2.924c-0.178-1.108-0.003-2.243 0.502-3.245s1.312-1.819 2.308-2.336 2.129-0.706 3.239-0.542c1.132 0.168 2.18 0.695 2.989 1.504s1.337 1.857 1.504 2.989z"></path>
<path stroke-linejoin="round" stroke-linecap="round" stroke-miterlimit="4" stroke-width="2.6667" d="M23.333 8.667h0.013"></path>
</symbol>
<symbol id="icon-jam_facebook-square" viewBox="0 0 32 32">
<path d="M14.26 11.916v1.836h-1.344v2.244h1.344v6.671h2.763v-6.671h1.853c0 0 0.175-1.076 0.259-2.253h-2.101v-1.533c0-0.231 0.301-0.539 0.6-0.539h1.504v-2.337h-2.047c-2.899 0-2.831 2.247-2.831 2.583z"></path>
<path d="M8 5.333c-0.707 0-1.386 0.281-1.886 0.781s-0.781 1.178-0.781 1.886v16c0 0.707 0.281 1.386 0.781 1.886s1.178 0.781 1.886 0.781h16c0.707 0 1.386-0.281 1.886-0.781s0.781-1.178 0.781-1.886v-16c0-0.707-0.281-1.386-0.781-1.886s-1.178-0.781-1.886-0.781h-16zM8 2.667h16c1.414 0 2.771 0.562 3.771 1.562s1.562 2.357 1.562 3.771v16c0 1.415-0.562 2.771-1.562 3.771s-2.357 1.562-3.771 1.562h-16c-1.414 0-2.771-0.562-3.771-1.562s-1.562-2.357-1.562-3.771v-16c0-1.415 0.562-2.771 1.562-3.771s2.357-1.562 3.771-1.562z"></path>
</symbol>
<symbol id="icon-justice-scale-1--office-work-scale-justice-company-arbitration-balance-court" viewBox="0 0 32 32">
<path stroke-linejoin="round" stroke-linecap="round" stroke-miterlimit="4" stroke-width="1.8462" d="M7.863 30.769c3.301 0 6.046-2.59 6.614-6.004 0.125-0.748-0.394-1.398-1.083-1.477-1.134-0.131-3.036-0.292-5.531-0.292s-4.397 0.161-5.531 0.292c-0.689 0.080-1.208 0.729-1.083 1.477 0.568 3.414 3.313 6.004 6.614 6.004z"></path>
<path stroke-linejoin="round" stroke-linecap="round" stroke-miterlimit="4" stroke-width="1.8462" d="M24.137 30.769c3.301 0 6.046-2.59 6.614-6.004 0.125-0.748-0.394-1.398-1.083-1.477-1.134-0.131-3.036-0.292-5.531-0.292s-4.397 0.161-5.531 0.292c-0.689 0.080-1.208 0.729-1.083 1.477 0.568 3.414 3.313 6.004 6.614 6.004z"></path>
<path stroke-linejoin="round" stroke-linecap="round" stroke-miterlimit="4" stroke-width="1.8462" d="M3.314 5.428c0.080-0.602 0.574-0.913 1.128-0.936 1.416-0.057 4.784-0.152 11.557-0.152s10.141 0.095 11.557 0.152c0.553 0.022 1.048 0.334 1.128 0.936 0.030 0.229 0.051 0.511 0.051 0.856s-0.020 0.627-0.051 0.856c-0.080 0.602-0.574 0.913-1.128 0.936-1.416 0.057-4.784 0.152-11.557 0.152s-10.141-0.095-11.557-0.152c-0.553-0.022-1.048-0.334-1.128-0.936-0.030-0.229-0.051-0.511-0.051-0.856s0.020-0.627 0.051-0.856z"></path>
<path stroke-linejoin="round" stroke-linecap="round" stroke-miterlimit="4" stroke-width="1.8462" d="M16 4.34v-3.109"></path>
<path stroke-linejoin="round" stroke-linecap="round" stroke-miterlimit="4" stroke-width="1.8462" d="M7.145 8.155c-1.164 3.699-3.426 11.043-4.325 15.083"></path>
<path stroke-linejoin="round" stroke-linecap="round" stroke-miterlimit="4" stroke-width="1.8462" d="M8.589 8.178c1.167 3.707 3.42 11.026 4.317 15.057"></path>
<path stroke-linejoin="round" stroke-linecap="round" stroke-miterlimit="4" stroke-width="1.8462" d="M23.411 8.178c-1.167 3.707-3.42 11.026-4.317 15.057"></path>
<path stroke-linejoin="round" stroke-linecap="round" stroke-miterlimit="4" stroke-width="1.8462" d="M24.855 8.155c1.165 3.699 3.426 11.043 4.325 15.083"></path>
</symbol>
<symbol id="icon-Logo" viewBox="0 0 32 32">
<path fill="#4285f4" style="fill: var(--color3, #4285f4)" d="M32 16.365c0-1.17-0.107-2.289-0.305-3.365h-15.354v6.165l8.843 0.002c-0.359 2.051-1.513 3.8-3.281 4.966v4h5.264c3.074-2.785 4.834-6.903 4.834-11.768z"></path>
<path fill="#34a853" style="fill: var(--color4, #34a853)" d="M21.904 24.133c-1.465 0.968-3.352 1.534-5.559 1.534-4.264 0-7.881-2.814-9.177-6.606h-5.43v4.125c2.69 5.227 8.219 8.814 14.606 8.814 4.415 0 8.124-1.422 10.823-3.869l-5.264-3.998z"></path>
<path fill="#fabb05" style="fill: var(--color5, #fabb05)" d="M6.656 16.001c0-1.065 0.181-2.094 0.511-3.062v-4.125h-5.43c-1.112 2.161-1.738 4.601-1.738 7.187s0.628 5.025 1.738 7.187l5.43-4.125c-0.33-0.968-0.511-1.997-0.511-3.062z"></path>
<path fill="#e94235" style="fill: var(--color6, #e94235)" d="M16.345 6.333c2.41 0 4.567 0.813 6.271 2.401l4.665-4.564c-2.833-2.584-6.527-4.17-10.936-4.17-6.386 0-11.916 3.587-14.606 8.814l5.43 4.125c1.295-3.792 4.913-6.606 9.177-6.606z"></path>
</symbol>
<symbol id="icon-material-symbols-light_close" viewBox="0 0 32 32">
<path d="M8.533 24.411l-0.944-0.944 7.467-7.467-7.467-7.467 0.944-0.944 7.467 7.467 7.467-7.467 0.944 0.944-7.467 7.467 7.467 7.467-0.944 0.944-7.467-7.467-7.467 7.467z"></path>
</symbol>
<symbol id="icon-ph_user" viewBox="0 0 32 32">
<path d="M28.865 26.501c-1.904-3.291-4.838-5.651-8.261-6.77 1.694-1.008 3.009-2.544 3.745-4.373s0.851-3.848 0.329-5.748-1.655-3.576-3.223-4.771c-1.568-1.195-3.484-1.842-5.455-1.842s-3.887 0.647-5.455 1.842c-1.568 1.195-2.7 2.871-3.223 4.771s-0.407 3.92 0.329 5.748c0.736 1.828 2.052 3.365 3.745 4.373-3.424 1.117-6.357 3.477-8.261 6.77-0.070 0.114-0.116 0.241-0.136 0.373s-0.014 0.267 0.019 0.396c0.033 0.129 0.091 0.251 0.172 0.357s0.182 0.196 0.297 0.263 0.243 0.11 0.376 0.126c0.132 0.017 0.267 0.006 0.396-0.030s0.248-0.098 0.353-0.181 0.191-0.187 0.255-0.304c2.355-4.070 6.518-6.5 11.134-6.5s8.779 2.43 11.134 6.5c0.064 0.117 0.15 0.221 0.255 0.304s0.224 0.145 0.353 0.181c0.129 0.036 0.263 0.046 0.396 0.030s0.26-0.060 0.376-0.126c0.116-0.067 0.217-0.156 0.297-0.263s0.139-0.228 0.172-0.357 0.039-0.264 0.019-0.396c-0.020-0.132-0.066-0.259-0.136-0.373zM9 12.001c0-1.384 0.411-2.738 1.18-3.889s1.862-2.048 3.142-2.578c1.279-0.53 2.686-0.668 4.044-0.398s2.605 0.937 3.584 1.916c0.979 0.979 1.646 2.226 1.916 3.584s0.131 2.765-0.398 4.044c-0.53 1.279-1.427 2.372-2.578 3.141s-2.505 1.18-3.889 1.18c-1.856-0.002-3.635-0.74-4.948-2.052s-2.050-3.092-2.052-4.948z"></path>
</symbol>
<symbol id="icon-Property-1Variant2" viewBox="0 0 29 32">
<path fill="#b8ef5b" style="fill: var(--color1, #b8ef5b)" d="M19.993 6.628l0 0c3.825 3.522 4.070 9.477 0.548 13.302l-0 0c-3.522 3.825-9.477 4.070-13.302 0.548l-0-0c-3.825-3.522-4.070-9.477-0.548-13.302l0-0c3.522-3.825 9.477-4.070 13.302-0.548z"></path>
<path fill="#242222" style="fill: var(--color7, #242222); stroke: var(--color7, #242222)" stroke="#242222" stroke-linejoin="round" stroke-linecap="round" stroke-miterlimit="4" stroke-width="0.3137" d="M10.778 13.911c-0.118 0.31 0.062 0.637 0.387 0.702 0.342 0.068 0.812 0.145 1.351 0.186l-0.134 1.459c-0.035 0.384 0.184 0.74 0.566 0.789 0.216 0.028 0.487 0.045 0.813 0.031s0.594-0.052 0.807-0.098c0.377-0.081 0.566-0.454 0.499-0.833l-0.253-1.443c0.534-0.086 0.996-0.201 1.331-0.297 0.319-0.091 0.472-0.432 0.328-0.732-0.353-0.737-1.125-2.178-2.538-4.083-0.246-0.331-0.746-0.311-0.963 0.040-1.251 2.014-1.902 3.514-2.194 4.278z"></path>
</symbol>
<symbol id="icon-ri_telegram-line" viewBox="0 0 32 32">
<path d="M16.001 26.667c2.829 0 5.542-1.124 7.543-3.124s3.124-4.713 3.124-7.543c0-2.829-1.124-5.542-3.124-7.542s-4.713-3.124-7.543-3.124c-2.829 0-5.542 1.124-7.542 3.124s-3.124 4.714-3.124 7.542c0 2.829 1.124 5.542 3.124 7.543s4.713 3.124 7.542 3.124zM16.001 29.333c-7.364 0-13.333-5.969-13.333-13.333s5.969-13.333 13.333-13.333c7.364 0 13.333 5.969 13.333 13.333s-5.969 13.333-13.333 13.333zM11.855 17.56l-3.331-1.039c-0.72-0.22-0.724-0.716 0.161-1.072l12.977-5.013c0.752-0.307 1.181 0.081 0.937 1.053l-2.211 10.427c-0.155 0.743-0.601 0.92-1.221 0.577l-3.401-2.517-1.585 1.531c-0.163 0.157-0.295 0.292-0.545 0.325-0.249 0.035-0.455-0.040-0.605-0.453l-1.16-3.828-0.016 0.009z"></path>
</symbol>
<symbol id="icon-Search--Streamline-Platinum-1" viewBox="0 0 32 32">
<path stroke-linejoin="miter" stroke-linecap="butt" stroke-miterlimit="4" stroke-width="2" d="M31.333 31.333l-7.905-7.905c-1.237 1.24-2.706 2.223-4.324 2.893s-3.352 1.014-5.104 1.012c-7.364 0-13.333-5.969-13.333-13.333s5.969-13.333 13.333-13.333c7.364 0 13.333 5.969 13.333 13.333 0.004 2.607-0.76 5.158-2.196 7.333"></path>
</symbol>
<symbol id="icon-Shopping-Cart-1--Streamline-Plump" viewBox="0 0 32 32">
<path stroke-linejoin="round" stroke-linecap="butt" stroke-miterlimit="4" stroke-width="2" d="M1.644 3.289c0.030-0.957 0.86-1.65 1.817-1.65h2.931c1.484 0 2.781 1.001 3.157 2.436l0.902 3.439h16.959c1.568 0 2.782 1.372 2.526 2.919-0.524 3.168-1.314 6.832-2.205 9.6-0.381 1.186-1.392 2.027-2.629 2.171-1.376 0.161-3.508 0.324-6.492 0.324-2.92 0-5.090-0.156-6.534-0.313-1.361-0.148-2.455-1.108-2.847-2.42-1.406-4.712-2.345-9.663-3.674-14.239h-2.095c-0.957 0-1.787-0.694-1.817-1.65-0.003-0.102-0.005-0.205-0.005-0.308s0.002-0.206 0.005-0.308z"></path>
<path stroke-linejoin="round" stroke-linecap="butt" stroke-miterlimit="4" stroke-width="2" d="M22.527 27.75c0 1.442 1.169 2.611 2.611 2.611s2.611-1.169 2.611-2.611c0-1.442-1.169-2.611-2.611-2.611s-2.611 1.169-2.611 2.611z"></path>
<path stroke-linejoin="round" stroke-linecap="butt" stroke-miterlimit="4" stroke-width="2" d="M9.472 27.75c0 1.442 1.169 2.611 2.611 2.611s2.611-1.169 2.611-2.611c0-1.442-1.169-2.611-2.611-2.611s-2.611 1.169-2.611 2.611z"></path>
</symbol>
<symbol id="icon-Shopping-Cart-Check--Streamline-Plump" viewBox="0 0 32 32">
<path stroke-linejoin="round" stroke-linecap="butt" stroke-miterlimit="4" stroke-width="2" d="M1.644 3.289c0.030-0.957 0.86-1.65 1.817-1.65h2.931c1.484 0 2.781 1.001 3.157 2.436l0.902 3.439h16.959c1.568 0 2.782 1.372 2.526 2.919-0.524 3.168-1.314 6.832-2.205 9.6-0.381 1.186-1.392 2.027-2.629 2.171-1.376 0.161-3.508 0.324-6.492 0.324-2.92 0-5.090-0.156-6.534-0.313-1.361-0.148-2.455-1.108-2.847-2.42-1.406-4.712-2.345-9.663-3.674-14.239h-2.095c-0.957 0-1.787-0.694-1.817-1.65-0.003-0.102-0.005-0.205-0.005-0.308s0.002-0.206 0.005-0.308z"></path>
<path stroke-linejoin="round" stroke-linecap="butt" stroke-miterlimit="4" stroke-width="2" d="M22.527 27.75c0 1.442 1.169 2.611 2.611 2.611s2.611-1.169 2.611-2.611c0-1.442-1.169-2.611-2.611-2.611s-2.611 1.169-2.611 2.611z"></path>
<path stroke-linejoin="round" stroke-linecap="butt" stroke-miterlimit="4" stroke-width="2" d="M9.472 27.75c0 1.442 1.169 2.611 2.611 2.611s2.611-1.169 2.611-2.611c0-1.442-1.169-2.611-2.611-2.611s-2.611 1.169-2.611 2.611z"></path>
<path stroke-linejoin="round" stroke-linecap="round" stroke-miterlimit="4" stroke-width="2" d="M15.347 14.695l2.611 2.937 3.917-5.222"></path>
</symbol>
<symbol id="icon-Shopping-Cart-Cross--Streamline-Plump" viewBox="0 0 32 32">
<path stroke-linejoin="round" stroke-linecap="butt" stroke-miterlimit="4" stroke-width="2" d="M1.644 3.289c0.030-0.957 0.86-1.65 1.817-1.65h2.931c1.484 0 2.781 1.001 3.157 2.436l0.902 3.439h16.959c1.568 0 2.782 1.372 2.526 2.919-0.524 3.168-1.314 6.832-2.205 9.6-0.381 1.186-1.392 2.027-2.629 2.171-1.376 0.161-3.508 0.324-6.492 0.324-2.92 0-5.090-0.156-6.534-0.313-1.361-0.148-2.455-1.108-2.847-2.42-1.406-4.712-2.345-9.663-3.674-14.239h-2.095c-0.957 0-1.787-0.694-1.817-1.65-0.003-0.102-0.005-0.205-0.005-0.308s0.002-0.206 0.005-0.308z"></path>
<path stroke-linejoin="round" stroke-linecap="butt" stroke-miterlimit="4" stroke-width="2" d="M22.527 27.75c0 1.442 1.169 2.611 2.611 2.611s2.611-1.169 2.611-2.611c0-1.442-1.169-2.611-2.611-2.611s-2.611 1.169-2.611 2.611z"></path>
<path stroke-linejoin="round" stroke-linecap="butt" stroke-miterlimit="4" stroke-width="2" d="M9.472 27.75c0 1.442 1.169 2.611 2.611 2.611s2.611-1.169 2.611-2.611c0-1.442-1.169-2.611-2.611-2.611s-2.611 1.169-2.611 2.611z"></path>
<path stroke-linejoin="round" stroke-linecap="round" stroke-miterlimit="4" stroke-width="2" d="M21.059 12.573l-4.896 4.896"></path>
<path stroke-linejoin="round" stroke-linecap="round" stroke-miterlimit="4" stroke-width="2" d="M16.163 12.573l4.896 4.896"></path>
</symbol>
<symbol id="icon-Subject--Streamline-Unicons" viewBox="0 0 32 32">
<path d="M1.888 9.727h28.224c0.941 0 1.568-0.627 1.568-1.568s-0.627-1.568-1.568-1.568h-28.224c-0.941 0-1.568 0.627-1.568 1.568s0.627 1.568 1.568 1.568zM17.568 22.271h-15.68c-0.941 0-1.568 0.627-1.568 1.568s0.627 1.568 1.568 1.568h15.68c0.941 0 1.568-0.627 1.568-1.568s-0.627-1.568-1.568-1.568zM30.112 14.431h-28.224c-0.941 0-1.568 0.627-1.568 1.568s0.627 1.568 1.568 1.568h28.224c0.941 0 1.568-0.627 1.568-1.568s-0.627-1.568-1.568-1.568z"></path>
</symbol>
<symbol id="icon-Vector" viewBox="0 0 32 32">
<path fill="#4272e1" style="fill: var(--color8, #4272e1)" d="M28.571 0h-25.143c-0.909 0-1.781 0.361-2.424 1.004s-1.004 1.515-1.004 2.424v25.143c0 0.909 0.361 1.781 1.004 2.424s1.515 1.004 2.424 1.004h9.804v-10.879h-4.5v-5.121h4.5v-3.903c0-4.439 2.643-6.891 6.691-6.891 1.939 0 3.966 0.346 3.966 0.346v4.357h-2.234c-2.201 0-2.887 1.366-2.887 2.766v3.325h4.913l-0.786 5.121h-4.127v10.879h9.804c0.909 0 1.781-0.361 2.424-1.004s1.004-1.515 1.004-2.424v-25.143c0-0.909-0.361-1.781-1.004-2.424s-1.515-1.004-2.424-1.004z"></path>
</symbol>
</defs>
</svg>
